C:\dev\predsim\predsim_tutorial\Results\Case_0\GRF.mot
version=1
nRows=25
nColumns=19
inDegrees=yes
endheader 
time	r_ground_force_vx	r_ground_force_vy	r_ground_force_vz	r_ground_force_px	r_ground_force_py	r_ground_force_pz	l_ground_force_vx	l_ground_force_vy	l_ground_force_vz	l_ground_force_px	l_ground_force_py	l_ground_force_pz	r_ground_torque_x	r_ground_torque_y	r_ground_torque_z	l_ground_torque_x	l_ground_torque_y	l_ground_torque_z	
          0.00000000	        -10.58025587	         75.78521048	         35.68078711	          0.23759360	          0.00000000	          0.05505254	         95.03640164	        497.77633516	         -0.75123604	         -0.33794993	          0.00000000	         -0.08423148	          0.00000000	         -0.00081425	          0.00000000	          0.00000000	         -2.79797180	          0.00000000	
          0.04447903	       -151.39585021	        728.97706220	        -21.47403022	          0.25633620	          0.00000000	          0.05986811	         45.14266320	        276.67587450	        -19.45424118	         -0.31858902	          0.00000000	         -0.09010807	          0.00000000	          2.41941353	          0.00000000	          0.00000000	         -1.41205341	          0.00000000	
          0.08895806	        -92.61932749	        609.66874916	         -2.94412347	          0.27083206	          0.00000000	          0.05439206	         -7.80545561	         45.12526201	        -19.60610655	         -0.30314687	          0.00000000	         -0.06841775	          0.00000000	          4.91016453	          0.00000000	          0.00000000	         -0.11147615	          0.00000000	
          0.13343709	        -50.26826827	        520.59411571	          2.45188159	          0.27755204	          0.00000000	          0.04884262	          0.00000000	          0.00000000	          0.00000000	          0.00000000	          0.00000000	          0.00000000	          0.00000000	          4.76956515	          0.00000000	          0.00000000	          0.00000000	          0.00000000	
          0.17791612	        -23.80779226	        498.07821088	         -0.31735688	          0.27977065	          0.00000000	          0.04550591	          0.00000000	          0.00000000	          0.00000000	          0.00000000	          0.00000000	          0.00000000	          0.00000000	          1.20129800	          0.00000000	          0.00000000	          0.00000000	          0.00000000	
          0.22239515	        -20.00576654	        525.06392063	         -6.87304927	          0.28607375	          0.00000000	          0.04458202	          0.00000000	          0.00000000	          0.00000000	          0.00000000	          0.00000000	          0.00000000	          0.00000000	         -0.55667593	          0.00000000	          0.00000000	          0.00000000	          0.00000000	
          0.26687418	         -0.46961332	        509.73454762	         -3.90901878	          0.29168530	          0.00000000	          0.04586760	          0.00000000	          0.00000000	          0.00000000	          0.00000000	          0.00000000	          0.00000000	          0.00000000	          2.76304817	          0.00000000	          0.00000000	          0.00000000	          0.00000000	
          0.31135321	         13.36140326	        502.12626114	        -11.08414854	          0.30032807	          0.00000000	          0.04805913	          0.00000000	          0.00000000	          0.00000000	          0.00000000	          0.00000000	          0.00000000	          0.00000000	          7.12245151	          0.00000000	          0.00000000	          0.00000000	          0.00000000	
          0.35583224	         33.37820965	        599.25224941	        -22.49397131	          0.31963548	          0.00000000	          0.05248900	          0.00000000	          0.00000000	          0.00000000	          0.00000000	          0.00000000	          0.00000000	          0.00000000	         12.51347842	          0.00000000	          0.00000000	          0.00000000	          0.00000000	
          0.40031127	         22.54719761	        622.78491009	        -30.77537777	          0.34932971	          0.00000000	          0.06235997	          0.00000000	          0.00000000	          0.00000000	          0.00000000	          0.00000000	          0.00000000	          0.00000000	         17.32409279	          0.00000000	          0.00000000	          0.00000000	          0.00000000	
          0.44479030	         18.14363732	        578.99149251	        -38.78553497	          0.38089568	          0.00000000	          0.07594516	          0.00000000	          0.00000000	          0.00000000	          0.00000000	          0.00000000	          0.00000000	          0.00000000	         20.49080633	          0.00000000	          0.00000000	          0.00000000	          0.00000000	
          0.48926933	         36.17668455	        542.51400462	        -50.68428759	          0.41065703	          0.00000000	          0.08446143	          0.00000000	          0.00000000	          0.00000000	          0.00000000	          0.00000000	          0.00000000	          0.00000000	         17.91640160	          0.00000000	          0.00000000	          0.00000000	          0.00000000	
          0.53374836	         63.80351351	        486.29698832	        -38.34169373	          0.43142071	          0.00000000	          0.08101281	          0.00000000	          0.00000000	          0.00000000	          0.00000000	          0.00000000	          0.00000000	          0.00000000	         12.18790254	          0.00000000	          0.00000000	          0.00000000	          0.00000000	
          0.57822739	         59.02384554	        314.68268733	        -36.93123665	          0.45898053	          0.00000000	          0.08315902	        -39.45712291	        372.44294470	        101.80456930	          0.92957749	          0.00000000	         -0.05603375	          0.00000000	          2.71234778	          0.00000000	          0.00000000	         -0.00089076	          0.00000000	
          0.62270642	         11.71048796	        103.38401937	        -23.70603667	          0.47923718	          0.00000000	          0.09268370	       -125.81747359	        799.96178009	         39.72178622	          0.94672590	          0.00000000	         -0.06415726	          0.00000000	         -0.00000000	          0.00000000	          0.00000000	          1.67806863	          0.00000000	
          0.66718545	          0.00000000	          0.00000000	          0.00000000	          0.00000000	          0.00000000	          0.00000000	        -78.76171372	        717.43170782	         14.39763061	          0.96557749	          0.00000000	         -0.06579261	          0.00000000	          0.00000000	          0.00000000	          0.00000000	          3.07119569	          0.00000000	
          0.71166448	          0.00000000	          0.00000000	          0.00000000	          0.00000000	          0.00000000	          0.00000000	        -34.40834807	        591.84704363	          8.09338161	          0.98171104	          0.00000000	         -0.06587652	          0.00000000	          0.00000000	          0.00000000	          0.00000000	          4.17804755	          0.00000000	
          0.75614351	          0.00000000	          0.00000000	          0.00000000	          0.00000000	          0.00000000	          0.00000000	        -16.24403597	        532.88790359	          9.99234714	          1.00082732	          0.00000000	         -0.06709623	          0.00000000	          0.00000000	          0.00000000	          0.00000000	          3.22794066	          0.00000000	
          0.80062254	          0.00000000	          0.00000000	          0.00000000	          0.00000000	          0.00000000	          0.00000000	        -12.19302217	        504.65585600	         13.26517459	          1.02595895	          0.00000000	         -0.06886869	          0.00000000	          0.00000000	          0.00000000	          0.00000000	          0.72016781	          0.00000000	
          0.84510157	          0.00000000	          0.00000000	          0.00000000	          0.00000000	          0.00000000	          0.00000000	         -1.54866583	        446.60996237	         14.66010358	          1.04709081	          0.00000000	         -0.07220510	          0.00000000	          0.00000000	          0.00000000	          0.00000000	         -1.15059015	          0.00000000	
          0.88958060	          0.00000000	          0.00000000	          0.00000000	          0.00000000	          0.00000000	          0.00000000	         10.21390998	        405.52647630	         18.66218565	          1.06727668	          0.00000000	         -0.07572564	          0.00000000	          0.00000000	          0.00000000	          0.00000000	         -2.58627789	          0.00000000	
          0.93405963	          0.00000000	          0.00000000	          0.00000000	          0.00000000	          0.00000000	          0.00000000	         28.10992077	        431.24656164	         20.20754144	          1.08416778	          0.00000000	         -0.07857464	          0.00000000	          0.00000000	          0.00000000	          0.00000000	         -4.34751567	          0.00000000	
          0.97853866	          0.00000000	          0.00000000	          0.00000000	          0.00000000	          0.00000000	          0.00000000	         61.81875169	        593.98872015	         27.12187960	          1.09590784	          0.00000000	         -0.07871383	          0.00000000	          0.00000000	          0.00000000	          0.00000000	         -6.96762720	          0.00000000	
          1.02301769	          0.00000000	          0.00000000	          0.00000000	          0.00000000	          0.00000000	          0.00000000	         87.91981839	        748.80773387	         27.18287233	          1.10534214	          0.00000000	         -0.07777990	          0.00000000	          0.00000000	          0.00000000	          0.00000000	         -7.71182985	          0.00000000	
          1.06749672	          0.00000000	          0.00000000	          0.00000000	          0.00000000	          0.00000000	          0.00000000	        100.44307260	        701.53410561	         13.39177894	          1.11976343	          0.00000000	         -0.07788274	          0.00000000	          0.00000000	          0.00000000	          0.00000000	         -5.83852967	          0.00000000	
